<?xml version="1.0" encoding="UTF-8" standalone="no"?>
<!-- Created with Inkscape (http://www.inkscape.org/) -->

<svg
   width="191.29254mm"
   height="32.785904mm"
   viewBox="0 0 191.29254 32.785904"
   version="1.1"
   id="svg9820"
   xmlns="http://www.w3.org/2000/svg"
   xmlns:svg="http://www.w3.org/2000/svg">
  <defs
     id="defs9817">
    <rect
       x="29.506357"
       y="348.90256"
       width="761.72986"
       height="168.3961"
       id="rect13478" />
  </defs>
  <g
     id="layer1"
     transform="translate(-7.1433754,-100.72554)">
    <g
       aria-label="{Diana}"
       transform="matrix(0.26458333,0,0,0.26458333,-5.073094,4.0020876)"
       id="text13476"
       style="font-size:133.333px;line-height:1.25;white-space:pre;shape-inside:url(#rect13478)">
      <path
         d="m 97.669748,479.24055 v 9.37498 H 93.6333 q -16.210896,0 -21.744736,-4.8177 -5.468736,-4.81769 -5.468736,-19.20568 V 449.0323 q 0,-9.83071 -3.515616,-13.60674 -3.515617,-3.77603 -12.760385,-3.77603 h -3.971344 v -9.30987 h 3.971344 q 9.309872,0 12.760385,-3.71093 3.515616,-3.77603 3.515616,-13.47653 v -15.62496 q 0,-14.38798 5.468736,-19.14058 5.53384,-4.81769 21.744736,-4.81769 h 4.036448 v 9.30987 h -4.427072 q -9.179664,0 -11.979136,2.86458 -2.799472,2.86457 -2.799472,12.04424 v 16.14579 q 0,10.22133 -2.994784,14.84371 -2.92968,4.62238 -10.09112,6.24998 7.226544,1.75781 10.156224,6.3802 2.92968,4.62238 2.92968,14.7786 v 16.1458 q 0,9.17966 2.799472,12.04424 2.799472,2.86457 11.979136,2.86457 z"
         style="fill:#f4f4f4"
         id="path18258" />
      <path
         d="m 158.38984,455.24409 v -37.12012 c 0,-2.77334 2.77335,-3.20001 6.72002,-3.20001 17.28006,0 20.80007,12.58671 20.80007,24.85341 0,16.21339 -7.57336,18.66673 -18.77339,18.66673 -7.89336,0 -8.7467,-0.64 -8.7467,-3.20001 z m -5.12001,-44.26681 c -2.77334,0 -5.76002,-0.32 -5.76002,-0.32 l -0.21333,0.32 c 0.64,4.48002 0.85333,9.92004 0.85333,16.00005 v 19.52007 c 0,6.08001 -0.21333,11.73337 -0.85333,16.00005 l 0.10666,0.32 c 0,0 3.09335,-0.32 5.86669,-0.32 6.40002,0 8.10669,0.21333 16.32005,0.21333 11.3067,0 27.94675,-5.12002 27.94675,-24.85341 0,-14.82671 -14.08004,-27.20009 -29.44009,-27.20009 -5.76002,0 -8.96003,0.32 -14.82671,0.32 z m -12.37337,-20.69339 h 61.01352 c 6.40002,0 8.85336,3.52001 8.85336,9.92003 v 72.32022 c 0,6.40002 -2.45334,8.85336 -8.85336,8.85336 h -61.01352 c -6.40002,0 -9.92004,-2.45334 -9.92004,-8.85336 v -72.32022 c 0,-6.40002 3.52002,-9.92003 9.92004,-9.92003 z m 80.10691,85.54693 v -75.6269 c 0,-9.60003 -6.29335,-13.76005 -15.89338,-13.76005 h -64.21353 c -8.64003,0 -13.76005,4.90669 -13.76005,13.76005 v 75.6269 c 0,9.60003 4.16002,13.65338 13.76005,13.65338 H 208.31 c 9.60003,0 12.69337,-4.05335 12.69337,-13.65338 z"
         style="font-size:106.667px;font-family:'Linux Biolinum Keyboard O';-inkscape-font-specification:'Linux Biolinum Keyboard O';fill:#ffbc00"
         id="path18260" />
      <path
         d="m 258.22999,390.28389 h 61.01352 c 6.40002,0 8.85336,3.52001 8.85336,9.92003 v 72.32022 c 0,6.40002 -2.45334,8.85336 -8.85336,8.85336 h -61.01352 c -6.40002,0 -9.92003,-2.45334 -9.92003,-8.85336 v -72.32022 c 0,-6.40002 3.52001,-9.92003 9.92003,-9.92003 z m 80.10692,85.54693 v -75.6269 c 0,-9.60003 -6.29336,-13.76005 -15.89339,-13.76005 h -64.21353 c -8.64003,0 -13.76004,4.90669 -13.76004,13.76005 v 75.6269 c 0,9.60003 4.16001,13.65338 13.76004,13.65338 h 67.41354 c 9.60003,0 12.69338,-4.05335 12.69338,-13.65338 z M 282.1234,411.61729 c 0,2.98667 2.45334,5.54668 5.54668,5.54668 3.09334,0 5.54669,-2.56001 5.54669,-5.54668 0,-2.98668 -2.45335,-5.54669 -5.54669,-5.54669 -3.09334,0 -5.54668,2.56001 -5.54668,5.54669 z m 0.64,31.6801 v 4.37334 c 0,6.08002 -0.21333,10.13337 -0.85334,14.50671 l 0.10667,0.21334 c 0,0 2.66668,-0.21334 5.44002,-0.21334 2.66667,0 5.33335,0.21334 5.33335,0.21334 l 0.21333,-0.21334 c -0.64,-4.58668 -0.85333,-8.32002 -0.85333,-14.50671 v -5.65335 c 0,-5.97335 0.21333,-9.28003 0.85333,-14.18671 0,-0.64 -0.32,-0.85334 -0.74667,-0.85334 -2.02667,0.85334 -6.93335,1.81334 -10.13336,2.02668 l -0.21334,0.21333 c 0.64001,3.52001 0.85334,8.10669 0.85334,14.08005 z"
         style="font-size:106.667px;font-family:'Linux Biolinum Keyboard O';-inkscape-font-specification:'Linux Biolinum Keyboard O';fill:#ffbc00"
         id="path18262" />
      <path
         d="m 410.44364,444.68406 v 8.00002 c 0,1.06667 -0.74667,1.60001 -1.38667,2.13334 -2.02667,1.60001 -4.58668,3.41335 -6.82669,3.41335 -2.45334,0 -3.73334,-2.45335 -3.73334,-4.58669 0,-3.30667 1.06667,-6.08001 5.54668,-7.25335 z m 8.53336,10.77336 c 0,-2.34667 0.32,-14.50671 0.32,-15.36004 0,-10.3467 -7.25335,-13.01338 -14.40004,-13.01338 -5.76002,0 -11.52004,3.30668 -13.44005,5.01335 l -0.32,0.32 2.13334,5.22668 1.81334,0.10667 c 2.13334,-3.62668 5.44002,-6.29335 9.0667,-6.29335 4.26668,0 6.29335,2.24001 6.29335,8.32002 0,0.64001 -0.21333,0.96001 -0.42667,0.96001 l -7.04002,1.70667 c -7.68002,1.81334 -14.08004,6.50669 -14.08004,11.9467 0,5.86669 4.58668,8.64003 10.24003,8.64003 3.09334,0 7.04002,-1.06667 11.09337,-4.69335 h 0.10666 c 0.64001,2.56001 2.88001,4.69335 6.40002,4.69335 3.09335,0 6.40002,-1.28 8.96003,-4.48001 -0.42667,-0.85334 -0.85333,-1.70668 -1.70667,-2.13334 l -0.21333,-0.21334 c -0.74667,0.53334 -1.81334,1.70667 -2.88001,1.70667 -0.96001,0 -1.92001,-0.85333 -1.92001,-2.45334 z m -43.41347,-65.17353 h 61.01353 c 6.40002,0 8.85336,3.52001 8.85336,9.92003 v 72.32022 c 0,6.40002 -2.45334,8.85336 -8.85336,8.85336 h -61.01353 c -6.40002,0 -9.92003,-2.45334 -9.92003,-8.85336 v -72.32022 c 0,-6.40002 3.52001,-9.92003 9.92003,-9.92003 z m 80.10692,85.54693 v -75.6269 c 0,-9.60003 -6.29335,-13.76005 -15.89338,-13.76005 h -64.21354 c -8.64003,0 -13.76004,4.90669 -13.76004,13.76005 v 75.6269 c 0,9.60003 4.16001,13.65338 13.76004,13.65338 h 67.41355 c 9.60003,0 12.69337,-4.05335 12.69337,-13.65338 z"
         style="font-size:106.667px;font-family:'Linux Biolinum Keyboard O';-inkscape-font-specification:'Linux Biolinum Keyboard O';fill:#ffbc00"
         id="path18264" />
      <path
         d="m 540.25721,447.67073 v -8.00002 c 0,-7.14669 -4.90669,-12.69338 -12.05338,-12.69338 -4.16001,0 -6.18668,0.64001 -11.3067,6.61336 h -0.21333 c 0,0 0.32,-3.41335 0.74667,-5.76002 0,-0.64 -0.21334,-0.85334 -0.74667,-0.85334 -2.02667,0.85334 -6.61335,1.81334 -9.92003,2.02668 l -0.10667,0.21333 c 0.64,3.41335 0.74667,8.10669 0.74667,14.08005 v 4.37334 c 0,6.08002 -0.10667,10.45337 -0.74667,14.82672 v 0.21333 c 0,0 2.66668,-0.21333 5.54669,-0.21333 2.66667,0 5.33335,0.21333 5.33335,0.21333 l 0.10666,-0.21333 c -0.64,-4.58669 -0.74667,-8.64003 -0.74667,-14.82672 v -9.38669 c 4.05335,-4.80002 5.33335,-5.97336 8.85336,-5.97336 4.26668,0 5.01335,2.66668 5.01335,8.32003 v 7.04002 c 0,6.08002 0,10.45337 -0.74667,14.82672 l 0.10667,0.21333 c 0,0 2.56001,-0.21333 5.33335,-0.21333 2.77334,0 5.44002,0.21333 5.44002,0.21333 l 0.10666,-0.21333 c -0.64,-4.58669 -0.74666,-8.64003 -0.74666,-14.82672 z m -47.36015,-57.38684 h 61.01352 c 6.40002,0 8.85336,3.52001 8.85336,9.92003 v 72.32022 c 0,6.40002 -2.45334,8.85336 -8.85336,8.85336 h -61.01352 c -6.40002,0 -9.92003,-2.45334 -9.92003,-8.85336 v -72.32022 c 0,-6.40002 3.52001,-9.92003 9.92003,-9.92003 z m 80.10691,85.54693 v -75.6269 c 0,-9.60003 -6.29335,-13.76005 -15.89338,-13.76005 h -64.21353 c -8.64003,0 -13.76004,4.90669 -13.76004,13.76005 v 75.6269 c 0,9.60003 4.16001,13.65338 13.76004,13.65338 h 67.41354 c 9.60003,0 12.69337,-4.05335 12.69337,-13.65338 z"
         style="font-size:106.667px;font-family:'Linux Biolinum Keyboard O';-inkscape-font-specification:'Linux Biolinum Keyboard O';fill:#ffbc00"
         id="path18266" />
      <path
         d="m 645.11072,444.68406 v 8.00002 c 0,1.06667 -0.74666,1.60001 -1.38667,2.13334 -2.02667,1.60001 -4.58668,3.41335 -6.82668,3.41335 -2.45335,0 -3.73335,-2.45335 -3.73335,-4.58669 0,-3.30667 1.06667,-6.08001 5.54668,-7.25335 z m 8.53336,10.77336 c 0,-2.34667 0.32001,-14.50671 0.32001,-15.36004 0,-10.3467 -7.25336,-13.01338 -14.40005,-13.01338 -5.76002,0 -11.52004,3.30668 -13.44004,5.01335 l -0.32,0.32 2.13334,5.22668 1.81334,0.10667 c 2.13334,-3.62668 5.44001,-6.29335 9.06669,-6.29335 4.26668,0 6.29335,2.24001 6.29335,8.32002 0,0.64001 -0.21333,0.96001 -0.42666,0.96001 l -7.04003,1.70667 c -7.68002,1.81334 -14.08004,6.50669 -14.08004,11.9467 0,5.86669 4.58668,8.64003 10.24003,8.64003 3.09335,0 7.04002,-1.06667 11.09337,-4.69335 h 0.10667 c 0.64,2.56001 2.88001,4.69335 6.40002,4.69335 3.09334,0 6.40002,-1.28 8.96003,-4.48001 -0.42667,-0.85334 -0.85334,-1.70668 -1.70668,-2.13334 l -0.21333,-0.21334 c -0.74667,0.53334 -1.81334,1.70667 -2.88001,1.70667 -0.96,0 -1.92001,-0.85333 -1.92001,-2.45334 z m -43.41346,-65.17353 h 61.01352 c 6.40002,0 8.85336,3.52001 8.85336,9.92003 v 72.32022 c 0,6.40002 -2.45334,8.85336 -8.85336,8.85336 h -61.01352 c -6.40002,0 -9.92004,-2.45334 -9.92004,-8.85336 v -72.32022 c 0,-6.40002 3.52002,-9.92003 9.92004,-9.92003 z m 80.10691,85.54693 v -75.6269 c 0,-9.60003 -6.29335,-13.76005 -15.89338,-13.76005 h -64.21353 c -8.64003,0 -13.76005,4.90669 -13.76005,13.76005 v 75.6269 c 0,9.60003 4.16002,13.65338 13.76005,13.65338 h 67.41354 c 9.60003,0 12.69337,-4.05335 12.69337,-13.65338 z"
         style="font-size:106.667px;font-family:'Linux Biolinum Keyboard O';-inkscape-font-specification:'Linux Biolinum Keyboard O';fill:#ffbc00"
         id="path18268" />
      <path
         d="m 717.67065,479.24055 h 4.55728 q 9.11456,0 11.84893,-2.79947 2.79947,-2.79947 2.79947,-12.10934 v -16.1458 q 0,-10.15622 2.92968,-14.7786 2.92968,-4.62239 10.15623,-6.3802 -7.22655,-1.6276 -10.15623,-6.24998 -2.92968,-4.62238 -2.92968,-14.84371 v -16.14579 q 0,-9.24477 -2.79947,-12.04424 -2.73437,-2.86458 -11.84893,-2.86458 h -4.55728 v -9.30987 h 4.10155 q 16.2109,0 21.61453,4.81769 5.46874,4.7526 5.46874,19.14058 v 15.62496 q 0,9.7005 3.51561,13.47653 3.51562,3.71093 12.76039,3.71093 h 4.03645 v 9.30987 h -4.03645 q -9.24477,0 -12.76039,3.77603 -3.51561,3.77603 -3.51561,13.60674 v 15.55985 q 0,14.38799 -5.46874,19.20568 -5.40363,4.8177 -21.61453,4.8177 h -4.10155 z"
         style="fill:#fafafa"
         id="path18270" />
    </g>
  </g>
</svg>
